PathFileType	4	(X/Y/Z)	C:\Users\Basilio\Documents\Thesis Gigler\squatting_fais\c3dfiles\077\SLS_back_pre4\markers_experimental.trc
DataRate	CameraRate	NumFrames	NumMarkers	Units	OrigDataRate	OrigDataStartFrame	OrigNumFrames
200.000000	200.000000	4	60	mm	200.000000	0	1402
Frame#	Time	FHD			LBHD			RBHD			C7			T10			CLAV			LSHO			LUUPA			LMUPA			LDUPA			LLEP			LMEP			LRAD			LUL			LRFIN			RSHO			RUPA1			RMUPA			RDUPA			RLEP			RMEP			RRAD			RUL			RUFIN			LASI			RASI			USACR			LSACR			RSACR			LTHI1			LTHI2			LTHI3			LTHI4			LLFC			LMFC			LTIB1			LTIB2			LTIB3			LTIB4			LLMAL			LHEE			LMT1			LMT2			LMT5			RTHI			RTHI2			RTHI3			RTHI4			RLFC			RMFC			RTIB1			RTIB2			RTIB3			RTIB4			RLMAL			RMMAL			RHEE			RMT1			RMT2			RMT5			
		X1	Y1	Z1	X2	Y2	Z2	X3	Y3	Z3	X4	Y4	Z4	X5	Y5	Z5	X6	Y6	Z6	X7	Y7	Z7	X8	Y8	Z8	X9	Y9	Z9	X10	Y10	Z10	X11	Y11	Z11	X12	Y12	Z12	X13	Y13	Z13	X14	Y14	Z14	X15	Y15	Z15	X16	Y16	Z16	X17	Y17	Z17	X18	Y18	Z18	X19	Y19	Z19	X20	Y20	Z20	X21	Y21	Z21	X22	Y22	Z22	X23	Y23	Z23	X24	Y24	Z24	X25	Y25	Z25	X26	Y26	Z26	X27	Y27	Z27	X28	Y28	Z28	X29	Y29	Z29	X30	Y30	Z30	X31	Y31	Z31	X32	Y32	Z32	X33	Y33	Z33	X34	Y34	Z34	X35	Y35	Z35	X36	Y36	Z36	X37	Y37	Z37	X38	Y38	Z38	X39	Y39	Z39	X40	Y40	Z40	X41	Y41	Z41	X42	Y42	Z42	X43	Y43	Z43	X44	Y44	Z44	X45	Y45	Z45	X46	Y46	Z46	X47	Y47	Z47	X48	Y48	Z48	X49	Y49	Z49	X50	Y50	Z50	X51	Y51	Z51	X52	Y52	Z52	X53	Y53	Z53	X54	Y54	Z54	X55	Y55	Z55	X56	Y56	Z56	X57	Y57	Z57	X58	Y58	Z58	X59	Y59	Z59	X60	Y60	Z60	

1	0	-175.6645050048828	1847.927856445313	-894.7597656250002	-327.9532470703126	1750.272583007813	-952.4067382812502	-325.0397338867188	1749.973388671875	-806.8061523437502	-392.2386779785157	1612.417846679688	-881.1668701171877	-427.7033996582032	1276.439453125	-869.9501953125002	-226.8272399902344	1553.584350585938	-889.2142333984377	-306.0374755859376	1579.211791992188	-1081.370727539063	-374.7004089355469	1363.665771484375	-1172.12255859375	-334.6781616210938	1335.413818359375	-1171.46435546875	-382.4661865234376	1296.45849609375	-1177.765869140625	-379.5467834472657	1229.759887695313	-1181.504516601563	-408.2681884765626	1214.796630859375	-1110.714965820313	-244.1157531738282	956.1169433593752	-1149.341918945313	-310.7545166015626	938.9663085937502	-1189.841064453125	-211.4286346435547	883.0817871093752	-1197.390258789063	-267.6836547851563	1579.459228515625	-691.5051879882814	-336.7700195312501	1376.8935546875	-577.0956420898439	-298.0487670898438	1348.551025390625	-581.7965698242189	-341.2355041503907	1308.443359375	-568.1791381835939	-338.0419311523438	1241.233520507813	-559.8839111328126	-370.2943725585938	1219.188720703125	-631.0302734375001	-199.7789001464844	974.693542480469	-579.8090820312501	-255.8467102050782	958.4807739257815	-526.4427490234376	-166.9317779541016	892.9421997070315	-547.2758789062501	-240.7894439697266	1065.776733398438	-1020.123352050781	-215.4806518554688	1092.070678710938	-732.8259277343751	-432.0442504882814	1155.691284179688	-865.0946044921877	-439.6350402832032	1124.540649414063	-892.7852172851565	-437.3198547363282	1122.75390625	-837.566345214844	-330.2875976562501	861.695495605469	-1080.961669921875	-310.4396057128907	780.6541137695315	-1083.85498046875	-262.8472595214844	775.4217529296877	-1079.814697265625	-344.6948242187501	731.3400878906251	-1068.858032226563	-333.0174255371094	582.8730468750001	-1054.31982421875	-314.8544921875001	547.5582275390626	-926.0921630859377	-291.5647277832032	360.1101684570313	-1019.054260253906	-328.9320678710938	323.2771301269532	-1092.626586914063	-294.2575073242188	318.5470581054688	-1061.859375	-291.8957519531251	237.0292663574219	-1041.801147460938	-346.6710815429688	116.3949584960938	-1092.612182617188	-397.426727294922	82.84874725341798	-1044.257446289063	-188.2804718017578	57.08747863769533	-1024.56494140625	-181.427001953125	57.78926849365236	-1067.116455078125	-313.2196044921876	124.3064880371094	-1010.332641601563	-353.3848571777344	762.5116577148439	-690.3884887695314	-326.6733093261719	702.6476440429689	-689.7666015625001	-292.9525146484376	699.2833862304689	-692.0962524414064	-364.7282104492188	632.7372436523439	-707.6489257812501	-372.2642211914063	562.4393920898439	-710.8190917968751	-331.2961730957032	544.6820678710939	-836.2567138671877	-317.6444091796876	427.5484619140626	-722.8923950195314	-378.4221191406251	344.6716613769532	-692.5288696289064	-333.4639282226563	342.6130676269532	-709.9270019531251	-323.3081970214844	298.3464660644532	-748.0106201171876	-382.0419921875001	116.3087692260742	-711.3654174804689	-346.6738891601563	124.0956344604492	-797.492370605469	-436.5884399414064	85.81551361083986	-768.1365356445315	-212.9864959716797	61.89397048950197	-747.9421997070314	-220.7408447265626	61.05362701416017	-711.0408935546876	-241.3682708740235	43.02423858642579	-663.4306030273439	
2	0.005	-175.7065582275391	1847.953979492188	-894.7320556640627	-328.0200500488282	1750.2412109375	-952.3418579101565	-325.1208801269532	1749.975463867188	-806.8381347656252	-392.239471435547	1612.386108398438	-881.1682739257815	-427.7722473144532	1276.424438476563	-869.965026855469	-226.8792114257813	1553.567016601563	-889.1789550781252	-306.0812988281251	1579.186889648438	-1081.366088867188	-374.7612915039063	1363.640869140625	-1172.087036132813	-334.7794189453126	1335.383056640625	-1171.448974609375	-382.5700988769532	1296.451416015625	-1177.757202148438	-379.6355285644532	1229.703125	-1181.4169921875	-408.3394470214845	1214.777465820313	-1110.656127929688	-244.3303375244141	956.018493652344	-1149.382690429688	-311.0369567871094	938.9097900390627	-1189.819213867188	-211.7988739013672	882.8376464843752	-1197.410888671875	-267.7419128417969	1579.424438476563	-691.4796142578126	-336.9220886230469	1376.84228515625	-577.0897827148439	-298.2089233398438	1348.510864257813	-581.7864379882814	-341.3795471191407	1308.429931640625	-568.1444091796876	-338.1966857910157	1241.183715820313	-559.9121704101564	-370.4274597167969	1219.139770507813	-631.0348510742189	-200.0967102050782	974.5567016601565	-579.7119750976564	-256.1643371582032	958.4202880859377	-526.3902587890626	-167.3023071289063	892.810485839844	-547.1404418945314	-240.707748413086	1065.786987304688	-1020.128356933594	-215.5233764648438	1092.08203125	-732.8125000000001	-432.018280029297	1155.699584960938	-865.106384277344	-439.609100341797	1124.506469726563	-892.7856445312502	-437.3301086425782	1122.74560546875	-837.6023559570315	-330.2904052734376	861.6831665039065	-1080.98681640625	-310.4664001464844	780.6925048828127	-1083.872436523438	-262.8464355468751	775.4235839843752	-1079.814331054688	-344.7201232910157	731.2794799804689	-1068.898681640625	-333.0564270019532	582.8926391601564	-1054.298461914063	-314.8222351074219	547.5587158203126	-926.1011962890627	-291.5618896484376	360.0856323242188	-1019.016784667969	-328.9163513183594	323.2590637207032	-1092.649536132813	-294.2738342285157	318.5284118652344	-1061.900390625	-291.8481445312501	237.0222625732422	-1041.806518554688	-346.6377868652344	116.3651962280274	-1092.672485351563	-397.436737060547	82.84142303466798	-1044.295776367188	-188.2180938720703	57.13475418090822	-1024.534545898438	-181.0490417480469	60.34304046630861	-1067.663208007813	-313.2668457031251	124.2740631103516	-1010.3818359375	-353.3848571777344	762.5117187500001	-690.3885498046876	-326.6974792480469	702.6407470703126	-689.7412109375001	-292.9601745605469	699.2978515625001	-692.0880126953126	-364.7587890625001	632.7131958007814	-707.6832885742189	-372.2600708007813	562.4246215820314	-710.7952270507814	-331.3005065917969	544.6846313476564	-836.2569580078127	-317.6720886230469	427.5464477539064	-722.8719482421876	-378.4174804687501	344.6710510253907	-692.5283203125001	-333.4659118652344	342.6186828613282	-709.9253540039064	-323.3031311035157	298.3478393554688	-747.9645996093751	-382.0434875488282	116.3116149902344	-711.3508911132814	-346.6676635742188	124.0716781616211	-797.503845214844	-436.5794372558595	85.7785110473633	-768.150085449219	-213.0352630615235	61.90742492675783	-747.9908447265626	-220.7452392578126	61.06308746337892	-711.0423583984376	-241.3934326171876	43.01181411743165	-663.4235839843751	
3	0.01	-175.7049255371094	1847.900268554688	-894.6443481445315	-328.0175476074219	1750.322387695313	-952.3480224609377	-325.1221923828126	1749.920532226563	-806.7694091796877	-392.333465576172	1612.406005859375	-881.1677246093752	-427.783172607422	1276.417724609375	-870.0090942382815	-226.9458160400391	1553.55322265625	-889.111999511719	-306.1104125976563	1579.157470703125	-1081.38720703125	-374.8485107421876	1363.6259765625	-1172.076293945313	-334.8268127441407	1335.368408203125	-1171.420166015625	-382.5991210937501	1296.407958984375	-1177.717895507813	-379.7167053222657	1229.6845703125	-1181.384399414063	-408.4522094726564	1214.719604492188	-1110.639404296875	-244.5806274414063	955.9272460937502	-1149.44189453125	-311.2202453613282	938.854187011719	-1189.799438476563	-212.1423492431641	882.6464843750002	-1197.4599609375	-267.8549194335938	1579.349975585938	-691.4587402343751	-337.0361022949219	1376.778198242188	-577.1015014648439	-298.3657531738282	1348.442260742188	-581.7995605468751	-341.5203857421876	1308.373046875	-568.1446533203126	-338.3328857421876	1241.141235351563	-559.9256591796876	-370.5691833496094	1219.114501953125	-631.0758666992189	-200.4568634033204	974.4820556640627	-579.6354370117189	-256.4647827148438	958.3271484375002	-526.2658691406251	-167.6693878173828	892.680603027344	-546.9784545898439	-240.6942138671876	1065.803588867188	-1020.125671386719	-215.6311035156251	1092.085327148438	-732.7817382812501	-432.0971069335939	1155.680908203125	-865.1655273437502	-439.6630249023439	1124.498168945313	-892.7988281250002	-437.3706970214845	1122.72509765625	-837.634216308594	-330.2328796386719	861.6940917968752	-1080.926879882813	-310.4188232421876	780.6915283203127	-1083.883544921875	-262.8292541503907	775.3837890625002	-1079.813354492188	-344.7158813476563	731.3049316406251	-1068.8671875	-333.0204772949219	582.8650512695314	-1054.33056640625	-314.8201293945313	547.5490722656251	-926.075134277344	-291.5182495117188	360.1016845703126	-1018.99658203125	-328.9281616210938	323.2726745605469	-1092.626342773438	-294.1795959472657	318.5733032226563	-1061.905639648438	-291.8481445312501	237.0222625732422	-1041.806518554688	-346.6721191406251	116.409782409668	-1092.607788085938	-397.4426879882814	82.83580017089845	-1044.266723632813	-188.2169799804688	57.13491439819337	-1024.5078125	-181.0860137939453	60.33988571166994	-1067.676635742188	-313.2469787597657	124.2560577392578	-1010.350158691406	-353.3858337402344	762.5084228515626	-690.4184570312501	-326.7080383300782	702.6669311523439	-689.7548217773439	-292.9938049316407	699.2920532226564	-692.1036376953126	-364.7611083984376	632.7204589843751	-707.6550903320314	-372.3103027343751	562.4358520507814	-710.8103027343751	-331.3189697265626	544.6651000976564	-836.2554321289065	-317.6913452148438	427.5530700683595	-722.8440551757814	-378.4265747070313	344.6585083007813	-692.5302124023439	-333.4759521484376	342.6156005859376	-709.8872680664064	-323.3045959472657	298.3166198730469	-748.0255737304689	-382.0394592285157	116.3010330200196	-711.3371582031251	-346.7037353515626	124.0554885864258	-797.4776000976565	-436.6140136718751	85.78961181640626	-768.1518554687502	-213.038070678711	61.88111495971681	-747.9598388671876	-220.739242553711	61.06863403320314	-711.0238647460939	-241.4034271240235	43.01720428466798	-663.4584350585939	
4	0.015	-175.7356872558594	1847.914428710938	-894.7014770507815	-328.1515502929688	1750.363525390625	-952.319519042969	-325.1621704101563	1749.955810546875	-806.666442871094	-392.3391723632814	1612.388061523438	-881.1700439453127	-427.8653869628907	1276.419311523438	-869.9967041015627	-226.9867401123047	1553.518310546875	-889.1136474609377	-306.1386108398438	1579.136596679688	-1081.367919921875	-374.8592834472657	1363.6123046875	-1172.027099609375	-334.8760681152344	1335.315185546875	-1171.3779296875	-382.6867370605469	1296.3876953125	-1177.676147460938	-379.8017272949219	1229.6552734375	-1181.346435546875	-408.5487670898439	1214.719848632813	-1110.601684570313	-244.7132110595704	955.834411621094	-1149.43798828125	-311.4599914550782	938.8044433593752	-1189.764892578125	-212.3719787597657	882.5665283203127	-1197.435180664063	-267.9353027343751	1579.3310546875	-691.4238281250001	-337.1769104003907	1376.750366210938	-577.0982666015626	-298.4830627441407	1348.393920898438	-581.7321777343751	-341.6774902343751	1308.316162109375	-568.1544189453126	-338.4871520996094	1241.111694335938	-559.8985595703126	-370.7333984375001	1219.078002929688	-631.0561523437501	-200.7156219482422	974.3436279296877	-579.5428466796876	-256.8243408203126	958.2230224609377	-526.2395019531251	-168.0512847900391	892.5429687500002	-546.8137207031251	-240.7895202636719	1065.78564453125	-1020.112365722656	-215.6177673339844	1092.09033203125	-732.7641601562501	-432.0909729003907	1155.666625976563	-865.1690063476565	-439.6328735351564	1124.468505859375	-892.861267089844	-437.362518310547	1122.664428710938	-837.632263183594	-330.1837158203126	861.6736450195315	-1080.965087890625	-310.4176025390626	780.6602172851565	-1083.896484375	-262.8602905273438	775.4173583984377	-1079.816162109375	-344.6528015136719	731.2951049804689	-1068.92529296875	-333.0090332031251	582.8873291015626	-1054.3154296875	-314.8067321777344	547.5339355468751	-926.0623779296877	-291.5103759765626	360.1293029785157	-1019.009155273438	-328.9693908691407	323.2263793945313	-1092.67041015625	-294.1889953613282	318.5454711914063	-1061.8720703125	-291.8481445312501	237.0222625732422	-1041.806518554688	-346.6049499511719	116.4054031372071	-1092.630737304688	-397.4307861328126	82.84091949462892	-1044.259521484375	-188.2853240966797	57.09737014770509	-1024.540649414063	-181.4590606689453	57.80819702148439	-1067.126953125	-313.2479858398438	124.264518737793	-1010.373229980469	-353.4270324707032	762.4793701171876	-690.3977050781251	-326.7101135253907	702.6503295898439	-689.7481689453126	-292.9955444335938	699.2984008789064	-692.0834960937501	-364.7788696289063	632.7350463867189	-707.6580200195314	-372.2989196777344	562.4536132812501	-710.7888793945314	-331.2926635742188	544.6783447265626	-836.2371826171877	-318.0949096679688	427.8804016113282	-723.0034179687501	-378.4306945800782	344.6425170898438	-692.5289306640626	-333.4819946289063	342.5974426269532	-709.9081420898439	-323.3127746582032	298.3134155273438	-747.9578857421876	-382.0440673828126	116.298942565918	-711.3496093750001	-346.6917419433594	124.032470703125	-797.4690551757815	-436.627410888672	85.81016540527345	-768.1259765625002	-212.9705657958985	61.88057708740236	-747.9212036132814	-220.7422332763672	61.0592384338379	-711.0374145507814	-241.3658905029297	43.00767135620118	-663.4793701171876	
